<?xml version="1.0" standalone="no"?>
<!DOCTYPE svg PUBLIC "-//W3C//DTD SVG 20010904//EN"
 "http://www.w3.org/TR/2001/REC-SVG-20010904/DTD/svg10.dtd">
<svg version="1.0" xmlns="http://www.w3.org/2000/svg"
 width="512.000000pt" height="512.000000pt" viewBox="0 0 512.000000 512.000000"
 preserveAspectRatio="xMidYMid meet">

<g transform="translate(0.000000,512.000000) scale(0.100000,-0.100000)"
fill="#000000" stroke="none">
<path d="M445 5110 c-194 -40 -352 -179 -417 -368 l-23 -67 0 -2115 0 -2115
23 -66 c57 -166 185 -294 350 -351 l67 -23 2115 0 2115 0 67 23 c165 57 293
185 350 351 l23 66 0 2115 0 2115 -23 67 c-57 163 -178 286 -348 350 l-59 23
-2100 1 c-1155 1 -2118 -2 -2140 -6z m4210 -307 c63 -21 127 -85 148 -148 16
-45 17 -216 17 -2095 0 -2297 7 -2104 -75 -2185 -81 -82 112 -75 -2185 -75
-2297 0 -2104 -7 -2185 75 -82 81 -75 -112 -75 2185 0 2298 -7 2104 75 2185
79 80 -112 73 2181 74 1884 1 2054 0 2099 -16z"/>
<path d="M688 4489 c-23 -12 -46 -35 -58 -59 -20 -39 -20 -57 -20 -1270 0
-1214 0 -1231 20 -1270 13 -26 34 -47 60 -60 39 -20 55 -20 1870 -20 1815 0
1831 0 1870 20 26 13 47 34 60 60 20 39 20 56 20 1270 0 1214 0 1231 -20 1270
-13 26 -34 47 -60 60 -39 20 -54 20 -1872 20 -1805 -1 -1834 -1 -1870 -21z
m3522 -1329 l0 -1050 -459 0 -459 0 -6 34 c-21 110 -109 258 -212 357 -151
144 -341 216 -547 207 l-79 -3 -83 228 c-90 248 -109 279 -178 298 -49 13 -89
4 -128 -28 -37 -32 -59 -73 -59 -112 0 -17 38 -134 84 -261 l84 -231 -42 -28
c-55 -39 -164 -154 -204 -217 -38 -60 -77 -153 -87 -207 l-7 -37 -459 0 -459
0 0 1050 0 1050 1650 0 1650 0 0 -1050z m-1543 -764 c76 -20 134 -51 189 -99
47 -41 105 -122 118 -164 l7 -23 -421 0 -421 0 6 23 c13 41 67 117 114 160
112 100 270 140 408 103z"/>
<path d="M2405 3904 c-438 -50 -758 -180 -1076 -435 -120 -97 -144 -159 -96
-243 46 -81 148 -99 223 -40 243 194 423 294 647 358 166 48 258 60 462 60
167 0 205 -4 316 -27 275 -58 523 -176 729 -348 34 -28 74 -57 88 -65 64 -33
151 -5 189 62 47 81 22 146 -92 240 -296 242 -663 395 -1044 434 -96 9 -277
11 -346 4z"/>
<path d="M955 1496 c-84 -21 -147 -57 -211 -121 -177 -176 -177 -453 1 -630
258 -259 695 -118 757 244 24 141 -22 281 -127 387 -112 113 -269 158 -420
120z m175 -306 c45 -23 80 -80 80 -130 0 -76 -74 -150 -151 -150 -46 0 -108
39 -130 82 -37 72 -14 151 57 194 48 29 92 30 144 4z"/>
<path d="M1888 1489 c-23 -12 -46 -35 -58 -59 -19 -37 -20 -58 -20 -370 0
-312 1 -333 20 -370 13 -26 34 -47 60 -60 38 -19 58 -20 670 -20 612 0 632 1
670 20 26 13 47 34 60 60 19 37 20 58 20 370 0 312 -1 333 -20 370 -13 26 -34
47 -60 60 -38 19 -57 20 -672 20 -610 -1 -634 -2 -670 -21z m1122 -429 l0
-150 -450 0 -450 0 0 150 0 150 450 0 450 0 0 -150z"/>
<path d="M3955 1496 c-84 -21 -147 -57 -211 -121 -177 -176 -177 -453 1 -630
258 -259 695 -118 757 244 24 141 -22 281 -127 387 -112 113 -269 158 -420
120z m175 -306 c45 -23 80 -80 80 -130 0 -76 -74 -150 -151 -150 -46 0 -108
39 -130 82 -37 72 -14 151 57 194 48 29 92 30 144 4z"/>
</g>
</svg>
