<svg xmlns="http://www.w3.org/2000/svg" viewBox="0 0 1440 320">
                <path fill="#eef" fill-opacity="1"
                    d="M0,320L30,320C60,320,120,320,180,298.7C240,277,300,235,360,229.3C420,224,480,256,540,240C600,224,660,160,720,133.3C780,107,840,117,900,149.3C960,181,1020,235,1080,240C1140,245,1200,203,1260,186.7C1320,171,1380,181,1410,186.7L1440,192L1440,320L1410,320C1380,320,1320,320,1260,320C1200,320,1140,320,1080,320C1020,320,960,320,900,320C840,320,780,320,720,320C660,320,600,320,540,320C480,320,420,320,360,320C300,320,240,320,180,320C120,320,60,320,30,320L0,320Z">
                </path>
            </svg>